<svg xmlns="http://www.w3.org/2000/svg" width="15.057" height="15.116" viewBox="0 0 15.057 15.116"><defs><style>.a{opacity:0.5;}.b{fill:#fff;}</style></defs><g class="a" transform="translate(0)"><path class="b" d="M319.086,309.64a6.97,6.97,0,0,1,4.976,2.07,7.052,7.052,0,0,1,2.064,5.01h2.9a9.967,9.967,0,0,0-9.936-9.977Zm0-5.136a12.2,12.2,0,0,1,12.152,12.219h2.9a15.1,15.1,0,0,0-15.05-15.116ZM323.1,314.7a2.007,2.007,0,1,1-2.007-2.007A2.007,2.007,0,0,1,323.1,314.7Z" transform="translate(-319.084 -301.607)"/></g></svg>