<svg xmlns="http://www.w3.org/2000/svg" width="46.591" height="45.441" viewBox="0 0 46.591 45.441"><defs><style>.a{fill:#ff3b00;fill-rule:evenodd;}</style></defs><path class="a" d="M159.613,107.44a23.3,23.3,0,0,0-7.362,45.4c1.166.213,1.59-.5,1.59-1.123,0-.553-.02-2.018-.031-3.963-6.48,1.409-7.847-3.122-7.847-3.122a6.17,6.17,0,0,0-2.587-3.408c-2.115-1.446.16-1.416.16-1.416a4.891,4.891,0,0,1,3.568,2.4c2.078,3.561,5.453,2.533,6.78,1.936a4.98,4.98,0,0,1,1.479-3.115c-5.173-.588-10.611-2.586-10.611-11.514a9.006,9.006,0,0,1,2.4-6.251,8.369,8.369,0,0,1,.229-6.165s1.955-.626,6.405,2.388a22.091,22.091,0,0,1,11.664,0c4.448-3.015,6.4-2.388,6.4-2.388a8.372,8.372,0,0,1,.233,6.165,8.99,8.99,0,0,1,2.394,6.251c0,8.95-5.447,10.919-10.637,11.5a5.562,5.562,0,0,1,1.582,4.315c0,3.115-.029,5.627-.029,6.391,0,.622.42,1.347,1.6,1.12a23.3,23.3,0,0,0-7.379-45.4Z" transform="translate(-136.32 -107.44)"/></svg>